<?xml version="1.0" encoding="UTF-8" standalone="no"?>
<svg
   width="200mm"
   height="200mm"
   viewBox="0 0 200 200"
   version="1.1"
   id="svg8"
   inkscape:version="1.2.2 (b0a8486541, 2022-12-01)"
   sodipodi:docname="Logo.svg"
   inkscape:export-filename="LOGO.png"
   inkscape:export-xdpi="253.99998"
   inkscape:export-ydpi="253.99998"
   xmlns:inkscape="http://www.inkscape.org/namespaces/inkscape"
   xmlns:sodipodi="http://sodipodi.sourceforge.net/DTD/sodipodi-0.dtd"
   xmlns="http://www.w3.org/2000/svg"
   xmlns:svg="http://www.w3.org/2000/svg"
   xmlns:rdf="http://www.w3.org/1999/02/22-rdf-syntax-ns#"
   xmlns:cc="http://creativecommons.org/ns#"
   xmlns:dc="http://purl.org/dc/elements/1.1/">
  <defs
     id="defs2">
    <inkscape:path-effect
       effect="powerclip"
       id="path-effect2618"
       is_visible="true"
       lpeversion="1"
       inverse="true"
       flatten="false"
       hide_clip="false"
       message="Füllregel Gerade-Ungerade im &lt;b&gt;Füllung und Kontur&lt;/b&gt;-Dialog verwenden, wenn das Anwenden des Ausschnitts mit nachfolgendem Umwandeln in Pfade kein Ergebnis bringt" />
    <filter
       inkscape:label="Channel Transparency"
       style="color-interpolation-filters:sRGB"
       id="filter982">
      <feColorMatrix
         values="1 0 0 0 0 0 1 0 0 0 0 0 1 0 0 10 10 10 10 0 "
         in="SourceGraphic"
         result="colormatrix"
         id="feColorMatrix978" />
      <feComposite
         in="colormatrix"
         in2="SourceGraphic"
         operator="in"
         result="composite1"
         id="feComposite980" />
    </filter>
    <clipPath
       clipPathUnits="userSpaceOnUse"
       id="clipPath1255">
      <path
         id="path1257"
         style="fill:#ff0000;fill-opacity:1;fill-rule:nonzero;stroke:none;stroke-width:0.264583"
         d="M -122.56461,-266.57546 V -2.0624064 c 0.92143,-0.014912 1.84239,-0.041692 2.76314,-0.087333 12.05085,-0.5973508 19.62822,-1.088323 24.445533,-1.4820799 -0.402973,-0.9885344 -0.771054,-1.9875831 -1.160653,-2.9806969 0.05516,0.071679 0.203126,0.2971615 0.165365,0.214974 -0.09575,-0.208393 -0.236196,-0.3934199 -0.341064,-0.5973795 -0.430432,-0.8371594 -0.77565,-1.7149098 -1.056267,-2.6132771 -0.09199,-0.2944953 -0.159869,-0.5960032 -0.239778,-0.8940022 -0.02376,-0.244584 -0.04477,-0.489536 -0.06666,-0.734322 -0.426805,-0.888172 -0.404315,-0.89477 -0.672312,-1.864486 -0.0084,-0.185925 -0.01357,-0.372027 -0.01963,-0.558105 -0.01834,-0.03187 -0.03441,-0.06474 -0.03617,-0.08682 -0.0026,-0.03316 -0.0051,-0.09676 -0.0078,-0.136942 -0.355888,-0.995864 -0.810135,-1.978254 -0.912606,-3.041158 0.509066,0.385713 0.0992,0.118841 -0.298688,-0.809253 -0.56318,-1.313837 -0.83863,-2.618136 -1.2082,-3.995622 -0.18911,-0.704856 -0.38372,-1.407946 -0.57567,-2.112016 -1.46303,-5.364191 0.72619,-8.474048 3.507794,-8.509558 2.163469,-0.02762 4.685313,1.804551 6.125208,5.882328 0.55127,1.561197 0.754541,3.238856 1.274857,4.807459 0.168559,0.508165 0.110014,0.130636 0.09715,0.03411 0.240596,0.704989 0.480814,1.410127 0.721405,2.115117 0.07793,1.341832 0.934426,2.435076 1.0604,3.770829 5.29e-4,0.0045 5.29e-4,0.009 0.0011,0.01343 -0.0019,-0.494973 0.174543,-0.379754 0.736904,2.534729 0.098,0.507849 -0.06767,2.74292 0.06356,0.729671 0.406839,1.001962 0.536546,1.217709 1.015958,2.305803 0.203943,0.6878448 0.507492,1.2833714 0.761193,1.9600869 0.296016,0.7896879 0.08675,0.3940067 0.293523,0.7648112 0.391078,0.4997961 0.119261,0.1439836 0.602546,1.7203084 0.07994,0.2607215 0.11167,0.534919 0.188103,0.7963339 1.243854,-0.00674 4.491686,0.110499 12.31346,0.3229777 0.0652,-0.1655059 0.126621,-0.3311631 0.196371,-0.4966105 0.159681,-0.3787616 0.368173,-0.7356668 0.526066,-1.1151775 0.221689,-0.5328462 0.12175,-0.3921286 0.03411,-0.2826699 0.11307,-0.3049059 0.230005,-0.608397 0.349332,-0.9110557 -0.186431,-1.4488194 -0.301948,-2.9030035 -0.343133,-4.3501215 -0.02601,-0.91388 1.370124,-0.690526 2.552817,-0.598413 0.17168,-0.352435 0.342082,-0.705727 0.516765,-1.056267 0.898486,-2.510352 2.027521,-4.937347 2.829801,-7.481197 0.395719,-1.371818 0.790927,-2.654277 1.529107,-3.899503 0.134477,-0.226847 0.299235,-0.433105 0.466121,-0.638204 1.614739,-2.68967 0.336646,-0.848595 1.833997,-2.557984 0.08996,-0.102695 -0.210275,0.174974 -0.304374,0.273886 -0.0066,0.0069 -0.01799,0.02397 -0.02635,0.0341 0.640289,-0.871093 0.675323,-0.957228 1.002522,-1.299144 1.310505,-2.117286 2.126666,-2.577883 5.406388,-3.015837 0.307734,-0.04109 0.605128,0.04202 0.899686,0.160713 0.03347,-0.01072 0.08003,-0.01968 0.149863,-0.02687 9.78181,-1.00638 10.425319,9.395971 0.710552,9.959082 -0.09549,0.114515 -0.390274,0.470347 -0.723988,0.873848 -0.157453,0.365389 -0.272907,0.504369 -0.936895,1.532723 v 5.29e-4 c -0.151405,0.552752 -0.23985,1.128653 -0.495575,1.643311 -0.52597,1.630067 -1.141608,3.228532 -1.776637,4.819861 1.683491,-0.07208 3.373004,-0.139806 5.087546,-0.216008 1.638199,-0.07281 3.10888,0.03866 4.41575,0.293005 1.194557,-0.137251 2.503842,-0.164256 3.928444,-0.05581 0.639238,0.04866 1.277495,0.106945 1.915128,0.169499 0.07497,-0.232882 0.145042,-0.441542 0.193786,-0.594279 0.325088,-0.801559 0.604126,-1.618873 0.873331,-2.439645 2.65e-4,-0.02567 -0.0024,-0.0614 -5.29e-4,-0.08113 0.26864,-2.792045 0.04687,-1.956828 0.686263,-3.689697 0.23372,-0.584628 0.472885,-1.165241 0.667142,-1.764233 0.03502,-0.108004 0.156297,-0.424082 0.100769,-0.325045 -0.255715,0.456012 -0.152686,0.724551 -0.245981,0.387573 -0.01516,-1.808645 0.53689,-3.29516 1.623674,-4.701005 0.137221,-0.17751 0.539695,-0.708802 0.443902,-0.505912 -1.229071,2.603265 -1.179764,1.288122 -1.098124,2.870626 5.437616,-1.720937 7.345776,-3.204274 8.293034,-3.230811 0.579697,-0.01625 0.805855,0.512467 1.274858,1.865519 0.01879,0.543021 0.108939,1.092037 0.15141,1.63711 0.07268,0.0348 0.05128,0.171699 0.01757,0.321944 0.0099,0.295416 -0.0026,0.589061 -0.05581,0.879016 0.02159,0.02238 0.05451,0.04875 0.112139,0.09715 0.541004,1.394587 0.314129,2.95175 0.38499,4.405932 0.064,1.313488 0.117147,0.776368 0.233061,1.828829 0.04761,0.432221 0.07398,0.86637 0.110585,1.299662 0.05944,0.05028 0.121409,0.09807 0.179835,0.149346 0.213809,0.651437 0.41625,1.306602 0.640789,1.954402 -0.01447,-0.05311 -0.02339,-0.109928 0.0062,-0.10542 0.101306,0.01546 0.454668,0.71473 0.486278,0.77308 0.231148,0.426726 0.412189,0.773037 0.60203,1.13223 1.804703,0.244164 3.612415,0.460813 5.426541,0.620634 1.182746,0.1041963 2.368436,0.1568651 3.555339,0.1870688 0.253729,-2.5707378 0.634361,-5.1364628 1.044897,-7.6672318 0.472454,-1.241873 0.847692,-2.524776 1.416968,-3.725354 0.216829,-0.457282 0.585383,-0.828201 0.921391,-1.206645 2.101663,-2.367094 2.16414,-2.27764 4.788855,-3.438033 -0.06357,0.01712 -0.03937,0.0052 0.184484,-0.08527 0.01358,-0.0047 0.05396,-0.02032 0.04082,-0.01447 -0.09605,0.04281 -0.135561,0.06005 -0.225309,0.09973 0.158096,-0.04258 1.0215795,-0.314472 1.8954911,-0.36897 0.1035007,-0.0065 0.2098659,-0.0097 0.3183268,-0.0093 0.7592256,0.003 1.6218395,0.166516 2.3331911,0.374138 1.5896926,0.463982 1.2273097,0.149308 1.7290933,0.6165 0.8838425,0.420893 0.082727,0.08973 1.7595825,0.389123 0.714103,0.1275 1.4268448,0.266044 2.13371987,0.428915 1.14956029,0.264869 2.25293463,0.75184 3.44526773,0.82889 1.7847086,0.34967 3.5466978,0.787682 5.3366252,1.115177 1.5536494,0.480922 1.4054207,0.372641 2.6447994,0.933277 0.501266,0.226748 1.000091,0.45988 1.494483,0.701249 0.02343,0.01144 0.08134,0.05639 0.05529,0.05529 -0.186353,-0.0081 -0.729263,-0.142155 -0.554488,-0.077 0.584283,0.21787 1.194417,0.359027 1.791622,0.538469 0.655497,0.442468 1.322462,0.868491 1.966805,1.327051 0.161186,0.114712 0.222322,0.33623 0.380339,0.455269 0.629211,0.473991 1.696311,0.897899 2.185396,1.472778 0.26303,0.300201 0.07217,0.123041 0.720369,0.395842 1.04062,0.43795 3.392243,1.163472 3.86023,2.109432 -4.727139,-1.180587 -3.897371,-1.137029 -0.03669,1.753381 0.0069,-0.36037 0.01308,-0.72084 0.02274,-1.081071 0.06401,-1.088107 0.127708,-2.176292 0.191719,-3.2644 0.984654,-16.739119 17.893704,-15.744346 16.909047,0.994771 -0.05173,0.879366 -0.149942,2.427109 -0.218075,3.866948 1.806985,-0.400986 3.613179,-0.805943 5.423442,-1.184941 0.03915,-0.03752 0.07001,-0.06736 0.115237,-0.111104 0.02286,-0.05762 0.04286,-0.1091 0.06459,-0.164331 -0.07507,-0.184112 -0.148214,-0.368603 -0.205671,-0.558623 -0.218173,-0.721555 -0.358307,-1.46507 -0.564825,-2.190047 -0.124362,-0.43658 -0.313571,-0.853489 -0.427363,-1.292944 -0.01072,-0.04134 -0.492916,-2.429086 -0.560689,-2.764172 -0.04486,-2.44222 0.06425,-4.693744 0.860931,-7.030578 0.240538,-0.705559 0.684553,-1.324226 1.02681,-1.986444 5.265857,-3.034173 5.869917,-3.972489 6.617166,-3.992004 h 5.29e-4 c 0.659437,-0.01648 1.431841,0.681934 5.617229,1.286227 0.590669,0.08528 -1.087366,-0.491932 -1.637625,-0.722953 -0.582819,-0.24469 -1.246733,-0.234958 -1.869136,-0.2589 6.554695,-0.160163 3.947147,-0.58583 10.736294,10.362676 l 0.157612,-1.223698 c -0.0214,-0.20179 -0.06492,-0.628239 -0.07286,-0.712618 -0.0213,-0.226243 0.05165,0.451714 0.07751,0.677478 l -0.0047,0.03514 c 0.115668,1.090327 0.358743,3.341222 0.336931,4.276741 -0.02077,0.890689 -0.03879,1.497104 -0.05633,2.015381 0.962337,0.698887 1.672725,1.584408 2.6386,3.155363 1.892366,-0.05258 3.783187,-0.15566 5.673555,-0.275952 0.194551,-0.230331 0.352539,-0.414445 0.569473,-0.673344 8.182412,-9.765283 2.216656,-3.917137 9.874851,-10.859802 2.570287,-1.880325 4.883576,-4.175818 7.711157,-5.641001 2.062226,-1.068581 4.441481,-1.392312 6.721036,-1.837613 7.067769,-1.38066 9.171389,-1.782445 11.159009,-1.762684 h 5.3e-4 c 1.98758,0.01992 3.8601,0.461079 10.46551,0.765845 15.20078,0.70136 8.32817,-0.889177 15.65847,1.065569 14.15651,3.775065 12.66902,16.709292 1.32034,17.137455 0.0303,0.147826 0.0565,0.292087 0.0754,0.433566 0.0341,0.08261 0.0672,0.165998 0.0956,0.251664 0.0453,0.136666 0.0852,0.275145 0.12402,0.413928 2.59775,-0.298966 5.19749,-0.572506 7.80107,-0.79685 0.21865,-0.751275 0.98445,-2.911406 0.87127,-2.146639 -0.35125,1.137544 -0.56509,1.739633 -0.71262,2.132686 0.11816,-0.01009 0.23632,-0.02062 0.3545,-0.03049 1.54239,-3.630405 1.38001,-4.885405 4.45554,-6.725171 0.51012,-0.305143 1.04937,-0.551393 1.59629,-0.781348 1.81812,-4.468603 4.97631,-6.641337 7.99021,-6.618718 2.39859,0.01799 4.70428,1.427361 6.17016,4.172355 0.23485,-0.02156 0.47502,-0.03357 0.72347,-0.03669 0.25831,-0.149561 0.50924,-0.270894 0.75241,-0.364318 0.72892,-0.39982 0.7863,-0.453739 3.31918,-1.961121 0.40929,-0.223131 0.89924,-0.284885 1.2914,-0.536919 0.33945,-0.218175 0.62419,-0.535207 0.99942,-0.683678 1.70964,-0.676463 3.48089,-1.185151 5.22138,-1.777669 0.11843,0.003 0.2366,0.0062 0.35502,0.0088 0.13947,0.0031 0.11329,0.004 0.20464,0.0062 1.57628,-0.215577 3.75976,-0.395118 4.39663,0.460955 0.79574,1.069628 1.47997,2.212901 2.08773,3.401859 0.30066,-0.143926 0.57846,-0.334926 0.8847,-0.466638 5.39526,-2.320486 -0.84766,0.545055 3.08611,-1.282094 0.55809,0.249645 0.43406,-0.41765 0.70694,-0.526582 2.06111,-0.822772 3.87375,-1.626674 6.0756,-1.725993 0.75286,-0.03396 2.80843,0.139734 3.91655,0.229444 0.25576,-0.0064 0.52291,-0.01 0.81649,-0.0083 0.0205,1.21e-4 -1.4e-4,0.04147 -5.3e-4,0.06201 -0.19263,-0.01156 -0.38563,-0.02357 -0.57826,-0.03514 -0.057,-0.0046 -0.17345,-0.01341 -0.23771,-0.0186 -3.40864,0.08521 -3.49488,0.960326 -1.55236,3.953764 0.11208,-0.114046 0.20803,-0.208423 0.32194,-0.325046 0.91181,-0.933548 2.59937,0.235648 3.89899,0.353467 1.49082,0.381013 2.65925,1.444876 4.03903,2.057239 -0.17617,-1.086356 -0.34606,-2.173097 -0.48059,-3.261815 -0.43371,-0.337461 -0.86556,-0.67726 -1.27331,-1.044898 -0.37971,-0.342358 0.83474,0.590486 1.25212,0.885732 0.006,0.05308 0.0146,0.106093 0.0212,0.159166 0.56058,0.436168 1.12498,0.868201 1.64899,1.346686 1.08612,0.991749 1.60352,2.162148 2.33629,3.438034 0.12047,0.209749 0.17828,0.311511 0.25993,0.453719 2.56158,1.904892 3.7361,2.575311 4.1951,2.952275 2.02074,-0.299734 4.04513,-0.569292 6.0818,-0.742074 0.005,0.0238 0.0108,0.04752 0.0155,0.07131 0.23065,-0.101083 0.44193,-0.167714 0.61909,-0.170532 0.27718,-0.0044 0.47697,0.135886 0.56378,0.497127 0.1326,0.551675 0.22718,1.106397 0.29508,1.663465 2.58876,-0.177753 5.18855,-0.151121 7.78608,-0.168465 0.062,-0.206932 0.12798,-0.413251 0.17054,-0.624768 0.0519,-0.258145 0.0473,-0.525229 0.0873,-0.785482 0.2476,-1.609663 0.16978,-0.450599 0.21859,-1.707906 0.61244,-1.469764 0.84071,-3.167061 1.8371,-4.409033 3.24624,-4.046339 6.58063,-4.536742 11.64425,-2.954343 1.44055,0.450178 4.95902,3.121922 3.46387,2.916102 -14.93753,-2.056296 -3.03456,-4.92784 -10.51822,-2.723348 -1.21873,0.893652 -1.82458,1.32492 -2.14922,1.550292 -0.001,0.0026 -0.002,0.0046 -0.003,0.0072 0.25032,-0.146674 0.44473,-0.201985 -0.16898,0.440283 -0.74033,1.91207 -1.15661,2.645301 -1.36167,3.109888 5.60605,-0.966385 11.35526,-0.756042 17.03203,-1.140499 0.11169,1.154689 0.53992,2.322572 0.33486,3.464388 -0.0409,0.227617 -0.0913,0.459228 -0.14727,0.692464 -0.005,-0.04856 -0.008,-0.09551 -0.0103,-0.141593 -0.007,0.05429 -0.0142,0.108514 -0.0212,0.16278 0.009,-5.29e-4 0.0186,-0.001 0.0279,-0.0016 0.001,-0.0043 0.002,-0.0086 0.003,-0.01292 5.3e-4,0.0042 5.3e-4,0.0082 0.001,0.0124 0.1415,-0.0081 0.28273,-0.01866 0.42426,-0.02636 0.23456,-0.02601 0.46857,-0.05583 0.70332,-0.0801 1.06473,-0.110064 2.13768,-0.101054 3.20962,-0.10542 0.99557,-0.04449 1.99104,-0.09395 2.98535,-0.153996 0.10529,-0.01185 0.21003,-0.02815 0.31523,-0.04082 0.16115,-0.254317 0.34385,-0.492336 0.56534,-0.691947 2.97485,-2.681058 2.92673,-2.476225 5.70611,-3.645257 7.08063,-0.734452 1.75306,-0.410276 6.319,-0.318326 0.0375,7.94e-4 -0.0476,-0.0597 -0.0791,-0.0801 -0.0534,-0.03457 -0.20865,-0.03064 -0.17206,-0.08268 0.0564,-0.08024 0.19259,-0.04021 0.28368,-0.07648 0.0901,-0.03588 0.171,-0.09232 0.25633,-0.138491 0.3546,0.0076 0.56415,-0.334849 0.87797,-0.413412 2.21234,-0.553897 3.99222,-1.081802 6.2172,-0.849561 0.89012,0.09291 1.75348,0.358473 2.6324,0.527098 0.53514,0.102684 1.07325,0.191214 1.60972,0.286805 0.73525,0.488723 1.6314,0.237654 2.41689,0.477491 2.74773,0.838861 5.12667,1.922584 6.4394,4.966105 67.33592,-47.464158 -5.10002,-6.413721 10.46914,3.40496 2.13382,-0.0098 5.71987,-1.093622 6.33087,0.950846 4.33989,14.5210088 1.57883,16.5344741 -5.34643,17.90536723 -0.27379,1.31449177 -0.59775,2.61526817 -0.99632,3.88141687 1.10983,2.1159476 2.12675,4.3043327 3.25819,6.3319129 0.3724,0.667315 -1.36776,-0.8665615 -2.13164,-0.8443926 -1.23931,0.035967 -2.47518,0.1216874 -3.70883,0.2387452 -0.31289,0.4927284 -0.64841,0.9712324 -1.00872,1.4340204 -1.12392,1.443665 -3.02924,1.623836 -5.04515,1.574064 -0.0265,0.135255 -0.0541,0.270482 -0.0781,0.406177 -0.0591,0.336364 -0.0701,0.683029 -0.16433,1.011308 -0.43209,1.506106 -0.68109,1.831119 -1.38078,3.187919 -0.82058,0.853706 -1.53596,1.822949 -2.46187,2.561084 -0.78462,0.625506 -1.60031,1.020279 -2.45618,1.271757 -0.18836,0.104776 -0.38447,0.201185 -0.58859,0.291972 -0.0569,0.124956 -0.10957,0.253144 -0.15245,0.388606 -1.90455,2.468083 -0.86876,1.073612 -3.0675,4.212146 -0.11594,0.152119 -0.27271,0.463385 -0.43927,0.369487 -0.16351,-0.09218 0.20961,-0.714332 0.11732,-0.550871 -3.03046,5.367797 0.39209,1.264604 -5.76969,6.991304 -0.97049,0.387096 -3.40228,1.371023 -4.12739,1.571482 -2.77323,0.766622 -4.36968,0.266501 -7.55354,-0.07235 -0.53358,-0.05679 -0.10567,-0.121907 -0.0966,-0.123507 -3.34873,-1.014019 -1.81513,-0.364959 -5.68648,-2.67529 -0.0197,-0.01177 0.0429,-0.01765 0.0641,-0.02635 0.33152,0.171225 0.66271,0.342437 0.99425,0.513662 -3.39888,-1.831443 -1.04753,-0.193225 -5.43584,-4.820894 -0.20552,-0.701951 -0.57898,-1.336084 -0.95344,-1.967322 -0.0319,0.0015 -0.0637,0.0027 -0.0956,0.0041 -0.63495,0.678243 -1.30978,1.321008 -1.90169,2.037087 -0.17628,0.213249 -0.60991,1.462153 -0.66611,1.578713 -0.31881,0.661218 -0.71932,1.281263 -1.03043,1.946135 -0.82175,1.756161 -0.64463,1.561571 -0.39997,1.172022 -0.25101,0.436279 -0.6581,1.152326 -1.45624,2.579171 -0.25952,0.524301 -0.45572,1.08529 -0.77877,1.57303 -1.4353,2.16702 -3.58918,4.8523 -5.97689,6.032707 -1.11314,0.550299 -2.29474,1.128707 -3.53571,1.172538 -1.07587,0.038 -2.13401,-0.193723 -3.19101,-0.442868 0.16378,0.08743 -0.23128,-0.02373 -0.71159,-0.165364 -0.41518,-0.09634 -0.83057,-0.187259 -1.24747,-0.257347 -0.0719,-0.05818 -0.10158,-0.08086 -0.17105,-0.136943 -0.42526,-0.113176 -0.3655,-0.118634 -1.71049,-0.582393 -1.29925,-0.237617 -2.55346,-0.680559 -3.85144,-0.920874 -0.65775,-0.121786 -1.33358,-0.121598 -1.99368,-0.22996 -0.89699,-0.147254 -1.77843,-0.379267 -2.67374,-0.536403 -0.51931,-0.09114 -1.60979,0.317891 -1.56838,-0.207738 0.29328,-3.72604 1.02177,-7.398282 1.76269,-11.068577 -0.66435,0.07409 -1.47721,0.164606 -2.84117,0.307991 -1.2838,0.07595 -2.57359,-0.077 -3.85765,-0.0057 -1.73997,0.09675 -3.46482,0.396954 -5.20382,0.509529 -0.42486,0.0275 -0.85,0.03143 -1.27589,0.02946 -0.95509,3.038433 -1.9027,4.269817 -6.33398,6.764446 -1.72123,0.968973 -4.04251,0.701085 -5.95054,0.843875 -1.64664,-0.548621 -3.34803,0.0414 -5.00589,-0.155546 -1.67144,-0.198556 -3.31484,-0.586403 -4.97231,-0.879533 -2.38835,-0.422388 -4.70706,-0.859821 -7.04143,-1.507402 -0.46337,-1.40539 -0.89768,-2.620958 -1.3007,-3.682979 -0.004,1.37e-4 -0.016,0.0013 -0.0202,0.0016 -0.49358,0.01455 -0.98228,-0.107873 -1.47588,-0.121957 -3.28714,-0.09377 -1.11887,0.15299 -2.92282,-0.08216 -0.96638,-0.02421 -1.79434,0.247234 -2.73575,0.44855 -0.71929,0.153816 -1.46669,0.307107 -2.21485,0.416513 -0.16665,0.278447 -0.32906,0.559519 -0.48266,0.845941 -0.66795,1.245505 -1.19237,2.562728 -1.81436,3.83181 -0.35165,0.717447 -0.78583,1.394386 -1.10587,2.126485 -0.34065,0.779235 -0.59001,1.537835 -0.82373,2.309935 -0.004,0.05596 -0.0114,0.161779 -0.0145,0.207224 0.008,0.02119 0.0138,0.04638 0.0217,0.06666 0.001,0.348316 0.0308,0.697642 0.004,1.044897 -0.002,0.02832 -0.0837,0.02389 -0.0853,-0.0047 -0.0153,-0.272738 0.0215,-0.545939 0.0388,-0.818555 0.003,-0.04005 0.0164,-0.225113 0.0207,-0.288353 -0.009,-0.02437 -0.017,-0.05096 -0.0253,-0.07648 -0.11374,0.379461 -0.22563,0.761537 -0.34158,1.153936 0.0167,-1.23429 0.11596,-2.522101 -0.60307,-3.660757 -0.29365,-0.46505 -0.63041,-0.89776 -0.98805,-1.315167 -4.49034,3.300529 -6.99259,8.759447 -10.81122,12.844177 -0.18564,0.198583 -0.52966,-0.195821 -0.71262,-0.396875 -0.4422,-0.485918 -0.87993,-0.935252 -1.30587,-1.376143 -0.41078,0.275124 -0.71972,-0.150569 -1.19941,-1.292945 -1.18951,-1.380312 -2.03409,-2.830554 -1.96628,-4.982125 0.0244,-0.775015 0.19083,-1.533337 0.38292,-2.288749 -2.12368,0.442857 -3.65236,0.880308 -5.78466,0.890902 -0.44325,0.0021 -0.88528,-0.03452 -1.32705,-0.07803 -0.24844,0.114663 -0.44481,0.201893 -0.73742,0.340032 0.2199,-0.06958 0.4404,-0.134019 0.66352,-0.180869 0.28589,-0.06003 -0.55222,0.189974 -0.82837,0.285255 -0.0785,0.02707 -0.31004,0.117917 -0.23513,0.08216 0.15891,-0.07582 0.25313,-0.117237 0.39998,-0.18655 -0.79052,0.250092 -1.56805,0.585013 -2.38746,0.571024 -1.78202,-0.03043 -3.51533,-0.596077 -5.27254,-0.894003 -1.34277,-0.826397 -1.80607,-1.056526 -3.10627,-2.132685 -0.33724,-0.279132 -0.6231,-0.615103 -0.93638,-0.920874 -0.52877,-0.516099 -1.08789,-1.002125 -1.58957,-1.544608 -0.27805,-0.300668 -0.77735,-0.995892 -1.2392,-1.662433 -1.77791,-0.487823 -1.80059,-0.519732 -3.04736,-0.659389 -3.39891,0.73271 -5.97713,0.73897 -7.78609,-0.315228 -1.47988,-0.108966 -2.95481,-0.302051 -4.43797,-0.343648 -0.0824,-0.0024 -0.16466,-0.0016 -0.24701,-0.0026 -2.02561,0.227362 -4.04885,0.474414 -6.06991,0.73897 -0.46103,0.263618 -0.92847,0.515004 -1.39423,0.756029 -0.77286,0.399931 -1.71099,0.3669 -2.580725,0.39584 -0.89408,0.02975 -1.805723,-0.04676 -2.700094,-0.226343 -13.920242,2.030714 -27.77804,4.574373 -41.767477,6.040459 -1.283904,0.134554 -2.569088,0.24901 -3.855579,0.3483 -0.721665,0.168357 -1.446515,0.322829 -2.177646,0.447 -2.431912,0.413023 -5.920517,2.321126 -7.392312,0.34158 -0.07046,-0.09475 -0.138555,-0.191093 -0.207222,-0.287319 -6.121519,0.196789 -12.253934,0.241385 -18.370972,0.499195 -63.135747,8.3234 -19.8684434,3.795424 -58.768505,6.200653 -4.75551,0.294039 -9.925254,2.442948 -14.712797,2.976563 L 279.73235,13.412035 315.33682,-266.57546 Z m 66.210426,247.088278 c -0.01029,0.01831 0.183256,-0.274444 0.232545,-0.414962 0.01561,-0.0445 -0.0097,-0.169128 -0.03049,-0.166398 -0.003,3.97e-4 -0.0061,0.0031 -0.0088,0.0093 -0.07928,0.18529 -0.139896,0.377253 -0.193271,0.572058 z m -42.436684,5.604309 c 0.01326,0.03707 0.02737,0.07399 0.04031,0.111104 -0.01797,-0.56722 -0.03482,-1.134451 -0.08372,-1.699638 -0.04671,-0.540111 -2.64e-4,0.933552 0.04341,1.588534 z m 0.04031,0.111104 c 0.0013,0.03756 0.0024,0.0751 0.0036,0.112655 0.03345,0.05813 0.07574,0.110665 0.06305,0.07235 -0.0205,-0.0619 -0.04514,-0.123259 -0.06666,-0.185002 z M 178.62785,-31.791341 c -0.2915,0.01926 -0.55958,0.04622 -0.62942,0.09508 0.18236,-0.02767 0.39623,-0.06064 0.62942,-0.09508 z m -0.92552,0.692465 c -0.18027,0.03884 -0.35525,0.09949 -0.53278,0.149344 -0.0471,0.03854 -0.0958,0.07539 -0.14315,0.113689 0.18476,-0.06623 0.36963,-0.132051 0.55294,-0.202055 0.0427,-0.01633 0.16769,-0.07058 0.12299,-0.06098 z m -239.146642,1.58905 c -0.07061,0.02516 -0.294002,0.367102 -0.391189,0.514181 0.09463,-0.09871 0.191077,-0.198678 0.377238,-0.393774 0.0346,-0.09487 0.03542,-0.128024 0.01394,-0.120407 z m 109.573158,3.05356 c -0.374216,1.791509 -0.528103,2.410189 -0.165365,2.943489 0.04322,-0.981129 0.125693,-1.962347 0.165365,-2.943489 z m -112.044324,0.440283 c 0.003,-0.02014 -0.245687,0.299719 -0.418579,0.555005 0.134237,-0.164839 0.269071,-0.329446 0.388089,-0.504879 0.02061,-0.03037 0.02993,-0.04638 0.03049,-0.05013 z m 236.748858,1.210779 c 0.0705,0.207946 0.14124,0.415165 0.21239,0.623218 0.89317,0.42201 1.48828,0.680642 1.9668,0.885734 -0.0158,-0.740255 -0.3152,-0.870286 -2.17919,-1.508952 z m 34.22685,0.09767 c -0.0106,0.06805 -0.014,0.147917 -0.004,0.245979 0.005,0.0476 0.0114,0.09466 0.0165,0.14211 0.0199,0.02152 0.0401,0.04342 0.0599,0.06511 -0.024,-0.15105 -0.0476,-0.302173 -0.0724,-0.453202 z m -260.027022,0.247013 c -0.157808,0.281777 -0.226272,0.412878 -0.295074,0.543119 0.02418,-0.04031 0.04828,-0.08195 0.0739,-0.119372 0.09003,-0.131473 0.299035,-0.562771 0.221176,-0.423747 z m 260.045622,0.19482 c 0.0611,0.535983 0.16019,1.06198 0.28991,1.580265 -0.0712,-0.505301 -0.1474,-1.010348 -0.22738,-1.515153 -0.0208,-0.02196 -0.0416,-0.04336 -0.0625,-0.06511 z m -145.853628,1.213363 c -0.01209,-0.01588 -0.03079,0.05532 -0.05839,0.258382 -0.263716,0.06776 -0.116075,0.01226 -0.0093,0.511596 0.02201,-0.142391 0.04779,-0.298252 0.08733,-0.509012 -0.0024,-0.143157 -0.0076,-0.245208 -0.01963,-0.260966 z m -54.4375026,0.852661 c 0.2831836,0.102504 0.5660538,0.204794 0.8526611,0.297139 0.1256421,0.04048 -0.2357091,-0.125289 -0.3643188,-0.155029 -0.1148006,-0.02654 -0.3138549,-0.09216 -0.4883423,-0.14211 z m 0.034106,0.349332 c -0.049374,-0.0053 -0.05187,0.0026 0.021188,0.03204 0.3202197,0.129133 0.6493764,0.235267 0.9803019,0.335897 -0.016513,-0.05822 -0.031327,-0.117318 -0.048576,-0.175184 -0.2328807,-0.04014 -0.8047903,-0.176708 -0.9529139,-0.192753 z m 235.3081146,0.338481 c -0.0441,-0.01113 -0.0575,0.0296 -0.0274,0.141594 0.0196,0.07287 0.0431,0.144591 0.0641,0.21704 0.1156,-0.0015 0.23116,-0.0036 0.34675,-0.0052 -0.17034,-0.19052 -0.31525,-0.336246 -0.38344,-0.353467 z m 42.7142,0.940511 c 0.66066,0.500388 1.31485,1.010877 1.98591,1.495516 -1.55374,-1.499442 -1.31744,-1.367892 -1.98591,-1.495516 z m -273.812236,0.06563 c -0.01892,0.01755 0.08091,0.225062 0.394808,0.740007 0.151199,-0.05522 -0.355002,-0.776919 -0.394808,-0.740007 z m 97.718586,1.97404 c -0.17578,0.03125 -0.37554,2e-5 -0.52762,0.09353 -0.35237,0.216739 -0.66423,0.455986 -0.94258,0.716236 0.37592,-0.143448 0.48958,-0.226041 1.4702,-0.80977 z m -140.664284,1.733228 c -0.0095,0.02452 -0.01942,0.04888 -0.02894,0.07338 0.01109,0.01439 0.01741,0.02496 0.03256,0.04289 0.628078,0.743279 1.428612,1.317325 2.183847,1.9358 -0.07514,-0.17632 -0.165336,-0.342954 -0.292489,-0.485242 -0.401225,-0.448975 -1.573043,-1.397053 -1.894975,-1.566829 z m 36.1223422,1.169437 c -0.1138475,0.432754 -0.1236294,0.473988 -0.2687174,1.02371 0.042909,0.03787 0.085725,0.07583 0.1286743,0.113688 0.052684,-0.281138 0.122419,-0.610781 0.1937866,-0.943095 -0.017661,-0.0649 -0.03588,-0.129511 -0.053744,-0.194303 z m -93.1922452,0.192236 c 0.0109,0.600722 -0.08978,1.206424 -0.03669,1.805575 0.04279,0.482965 0.05271,-0.968485 0.07907,-1.452625 -0.0182,-0.117838 -0.03227,-0.238383 -0.04238,-0.35295 z m 59.467173,1.258838 c -0.0013,0.15104 2.65e-4,0.30185 0.01757,0.451652 0.0096,0.08296 0.0041,-0.176889 0.05323,-0.244429 0.0027,-0.0037 0.0057,-0.0044 0.0088,-0.0031 -0.02756,-0.06742 -0.05489,-0.134818 -0.07958,-0.204122 z m 30.5707428,1.333252 c -0.024447,-0.0034 -0.0554705,-0.0025 -0.0930176,0.0041 -0.0665751,0.01176 -0.13202507,0.02794 -0.19792074,0.04289 0.14227516,0.01329 0.22533634,0.02251 0.33227944,0.03359 0.034722,-0.03491 0.021926,-0.07177 -0.041341,-0.08061 z m 0.041341,0.08061 c -0.00553,0.0056 -0.00676,0.01119 -0.014986,0.01654 -0.11048884,-0.01564 -0.26043152,-0.03592 -0.33176271,-0.04703 -0.76833928,0.176831 -1.49727692,0.539142 -2.31355379,0.498161 -0.088993,0.0155 -0.1805816,0.0096 -0.2707846,0.01447 -0.029692,6.35e-4 -0.055549,-0.0016 -0.084749,-0.0016 -6.5e-6,0.141761 1.7e-5,0.283537 0,0.425297 -1.002e-4,0.872494 2.379e-4,1.744917 5.159e-4,2.6174114 0.1466103,-0.03213 0.4189323,-0.092888 1.24953615,-0.2971395 0.55877281,0.058293 1.02613254,-0.2635504 1.56269532,-0.3234944 0.70951173,-0.079265 3.11368473,-0.3112175 4.09122323,-0.2072225 0.1008706,0.01073 0.2011455,0.02631 0.3017901,0.03876 0.026281,-0.01714 0.053165,-0.0332 0.079582,-0.05013 -0.00947,-0.398264 -0.00377,-0.792431 0.015502,-1.192175 -0.4143089,-0.372991 -0.8367702,-0.801716 -1.1198283,-1.246435 -0.4683752,-0.128243 -0.6795593,-0.211149 -0.089917,-0.09147 0.00689,-0.0012 0.022662,-0.0029 0.031006,-0.0041 -0.017187,-0.02928 -0.033787,-0.05852 -0.049609,-0.08785 -0.4505693,-0.01056 -0.905278,0.05037 -1.3570231,0.05271 -0.9992356,0.0052 -0.7106878,-0.01225 -1.6996378,-0.114722 z m -0.3467488,-0.03049 c 0.004812,-0.0011 0.009654,-0.002 0.0144693,-0.0031 -0.0546538,-0.0051 -0.0670666,-0.0075 -0.12764077,-0.01292 -0.0379114,-0.0034 0.0888387,0.01223 0.11317147,0.01602 z m -2.2267374,0.04548 c -0.1230012,0.05172 -0.287039,0.119538 -0.4423503,0.183968 v 0.0067 c 0.2995384,-0.128198 0.7137341,-0.304808 0.4423503,-0.190686 z m -96.7248456,0.09508 c -0.02085,-0.02341 0.0024,0.748757 0.07803,1.017509 0.01312,0.04668 0.02955,0.09197 0.04599,0.137459 -0.03312,-0.364635 -0.06845,-0.728949 -0.112136,-1.092439 -0.0048,-0.0396 -0.0089,-0.05919 -0.01188,-0.06253 z m 107.6420086,1.634526 c -0.053431,0.0016 -0.102021,0.0073 -0.1333252,0.01809 -0.040943,0.01416 -0.082906,0.02692 -0.1240234,0.04082 0.1738894,-0.0069 0.3477382,-0.01391 0.5208984,-0.02791 0.09905,-0.008 -0.1032563,-0.03584 -0.2635498,-0.03101 z m -9.58494464,1.5394405 c -0.53924106,-0.027074 -1.52502666,0.1858307 -1.77405186,0.2439128 1.62e-5,0.049611 3.3e-6,0.099219 0,0.1488281 0.6028622,0.05566 1.20542149,0.113542 1.80815831,0.1710489 0.07733601,-0.1244047 0.15670547,-0.2476876 0.22840982,-0.375171 0.0701156,-0.1246565 -0.04862204,-0.1778796 -0.26251627,-0.1886188 z M -61.210216,12.950114 l -9.786483,0.853178 c -0.0046,0.01227 -0.0094,0.02441 -0.01394,0.03669 -0.08567,0.17055 -0.174067,0.339835 -0.260448,0.510046 3.343066,8.605413 4.238503,7.783273 -0.994257,9.871232 -0.14242,0.05683 -0.283464,0.110565 -0.42323,0.161231 -0.01,0.03367 -0.02064,0.06706 -0.03049,0.100769 0.288914,0.295422 0.538361,0.598448 0.754994,0.905371 4.890196,-0.545184 8.985565,-1.025106 12.481406,-1.453658 0.315926,-0.600121 0.712838,-1.217111 1.201479,-1.845366 0.0544,-0.06994 0.108807,-0.139908 0.163298,-0.209806 -1.973067,-2.226288 -2.842123,-5.569218 -3.092318,-8.929687 z m -53.758994,1.5012 c -1.55986,0.156674 -3.12005,0.308628 -4.68085,0.452169 -0.97131,0.0077 -1.94293,0.0072 -2.91455,0.0041 v 16.45171 c 1.13348,-0.239469 2.32327,-0.424413 3.11919,-0.64389 4.92969,-1.359368 9.9688,-2.400197 15.05024,-2.973461 4.930256,-0.556208 9.899973,-0.650727 14.861627,-0.841291 -0.01691,-0.109439 -0.03334,-0.216445 -0.05478,-0.339 -0.192757,-2.576583 -0.194699,-4.558424 0.534334,-7.137548 0.186856,-0.661047 0.612753,-1.451198 1.099674,-2.20555 -0.07429,-0.129731 -0.233659,-0.455263 -0.582393,-1.229382 -0.102624,-0.227799 -0.196606,-0.455417 -0.287321,-0.683163 -6.343725,1.012032 0.668131,-0.08305 -16.137511,1.147734 -1.54432,0.612244 -3.3552,1.724248 -3.69538,0.478007 -0.0128,-0.04678 -0.0234,-0.09372 -0.0357,-0.14056 -3.9594,0.48265 -0.628,0.716354 -6.78925,-0.218591 0.19087,-0.69848 0.35864,-1.407112 0.51263,-2.121318 z m 26.9906,2.562634 c 0.0082,0.02363 0.03194,0.09757 0.05219,0.161231 0.0021,-0.0033 0.0041,-0.0066 0.0062,-0.0098 -0.01667,-0.0436 -0.06423,-0.168307 -0.05839,-0.151412 z m 362.76753,3.253032 c 1.41928,1.088075 2.39993,1.465622 3.05768,1.317232 -1.04073,-0.396847 -2.08483,-0.786991 -3.05768,-1.317232 z m -361.812548,5.918502 c -0.02814,-0.004 0.151276,0.424637 0.203089,0.587044 0.0021,0.0047 0.0021,0.0037 0.0041,0.0083 0.01138,-5.29e-4 0.02276,-0.0011 0.03411,-0.0016 -0.05689,-0.150858 -0.110154,-0.287105 -0.189653,-0.522449 -0.0089,-0.01358 -0.01683,-0.02781 -0.02585,-0.04134 -0.01349,-0.02028 -0.02183,-0.02939 -0.02585,-0.02997 z m 51.512618,0.911571 c -0.480269,0.01455 -1.058995,0.334368 -1.706874,0.875401 0.862872,-0.107492 1.693645,-0.280686 2.48512,-0.536403 -0.217924,-0.239316 -0.479182,-0.348052 -0.778246,-0.338998 z m -1.032497,3.967718 c -0.3224,0.01921 -0.644765,0.03999 -0.967382,0.05633 -0.853123,0.04319 -1.743012,0.08068 -2.643765,0.0987 -0.169246,0.219477 -0.341344,0.449088 -0.513664,0.680064 1.392528,-0.156345 2.786306,-0.298842 4.181657,-0.415481 -0.01217,-0.13367 -0.03141,-0.273719 -0.05685,-0.419611 z m 153.583387,2.162657 c 0.38293,0.106767 0.75675,0.217231 1.09141,0.350885 0.49484,0.197625 1.06281,0.06361 1.59732,0.04186 -0.12227,-0.04391 -0.18958,-0.11162 -0.12558,-0.204121 0.003,-0.0044 0.007,-0.0077 0.01,-0.01188 -1.22005,-0.122709 -2.01392,-0.164894 -2.57297,-0.176734 z m 2.57297,0.176734 c 0.30043,0.03022 0.61177,0.06268 0.9648,0.103354 0.26935,0.03104 -0.53513,0.101706 -0.80615,0.109553 -0.0141,5.29e-4 -0.0287,0.0026 -0.0429,0.0031 0.21606,0.07759 0.60877,0.07816 0.78755,-0.0088 0.2088,-0.101518 0.43713,-0.194019 0.67489,-0.28267 -0.18186,-0.02098 -0.22699,-0.02479 -0.44442,-0.05064 -0.37596,0.0453 -0.90954,-0.170747 -1.13378,0.126089 z M -70.74607,33.252233 c -1.521203,0.187343 -3.041099,0.384752 -4.559411,0.593764 1.420323,0.0185 2.78537,0.0362 4.063318,0.05219 0.156469,-0.215709 0.321167,-0.431324 0.496093,-0.645956 z m -51.81854,4.197162 v 13.582631 h 68.589094 c -1.323811,-0.184409 -2.595777,-0.590502 -3.795636,-1.30638 -1.958252,-1.168363 -2.915936,-3.276735 -3.259748,-5.718514 -53.51538,4.9348 -16.781127,4.390671 -47.72008,4.374412 -1.40026,-1.230074 -2.90913,-2.369256 -4.44521,-3.485576 -0.23449,0.351669 -0.47473,0.700175 -0.7276,1.040247 -0.43062,0.579104 -2.36762,-0.964994 -1.72961,-1.302248 0.40717,-0.21523 0.81986,-0.419584 1.23506,-0.618048 -2.86942,-2.059844 -5.75698,-4.104582 -8.14627,-6.566524 z m 8.14627,6.566524 c 0.40794,0.292841 0.81652,0.585267 1.22215,0.880049 0.41973,-0.62948 0.81483,-1.274574 1.18753,-1.933733 -0.8147,0.326181 -1.61896,0.675714 -2.40968,1.053684 z m 343.65913,-4.483965 c -0.10963,0.01905 2.16582,1.987418 2.44016,2.131137 0.23692,0.124116 0.48339,0.226457 0.73432,0.318325 -2.22854,-1.793433 -3.11425,-2.459929 -3.17448,-2.449462 z"
         sodipodi:nodetypes="ccsccsssccccscccscsssccccsccscsccssccscccscssccsccccccccscscccccsscsscscccccsscccsscsccssccscscscssccsscscsscscccssccccssscscsssscccsccscccscssssssccscccccscsccccsscscscscsscsccccscccsccssccccssccsccsssccccccscccccccscccscsssscssscscccccsscsccccsccccsccsscscccccsssccssscccccsssccccscscsscccscscsssccccsccccscssccscsccssscscssscccsccsscscssccsccccssscssccscscssscccsccssssccsscccscsssccccscccssscssssccssscccsscsscscccsssccsscccscssscssscscsssccccccsccssscssssccssscccccsccsscccccccsssccscsccsssscssssscsssscccssccccsccccscscccccssccscsccsccscsccssccccccccsccsccssscccsscscscscssccsccsssccsscccscccssccccccsscs" />
    </clipPath>
    <clipPath
       clipPathUnits="userSpaceOnUse"
       id="clipPath2614">
      <path
         style="display:none;opacity:1;mix-blend-mode:difference;fill:#ffffff;stroke:#000000;stroke-width:0.266163px;stroke-linecap:butt;stroke-linejoin:miter;stroke-opacity:0"
         d="M 210.034,164.61743 252.29318,49.6488 167.6578,49.709784 Z"
         id="path2616"
         sodipodi:nodetypes="cccc"
         clip-path="none" />
      <path
         id="lpe_path-effect2618"
         style="opacity:1;mix-blend-mode:difference;fill:#ffffff;stroke:#000000;stroke-width:0.266163px;stroke-linecap:butt;stroke-linejoin:miter;stroke-opacity:0"
         class="powerclip"
         d="m 105.44259,2.1253273 h 210 V 212.12533 h -210 z M 210.034,164.61743 252.29318,49.6488 167.6578,49.709784 Z" />
    </clipPath>
  </defs>
  <sodipodi:namedview
     id="base"
     pagecolor="#ffffff"
     bordercolor="#666666"
     borderopacity="1.0"
     inkscape:pageopacity="0.0"
     inkscape:pageshadow="2"
     inkscape:zoom="1.1139838"
     inkscape:cx="425.05106"
     inkscape:cy="396.77417"
     inkscape:document-units="mm"
     inkscape:current-layer="layer1"
     inkscape:document-rotation="0"
     showgrid="false"
     inkscape:snap-global="true"
     inkscape:object-paths="true"
     inkscape:snap-intersection-paths="true"
     inkscape:snap-smooth-nodes="true"
     inkscape:snap-midpoints="true"
     inkscape:snap-center="true"
     inkscape:window-width="1280"
     inkscape:window-height="1371"
     inkscape:window-x="2720"
     inkscape:window-y="939"
     inkscape:window-maximized="0"
     inkscape:snap-nodes="false"
     showguides="false"
     inkscape:pagecheckerboard="0"
     inkscape:showpageshadow="0"
     inkscape:deskcolor="#d1d1d1" />
  <metadata
     id="metadata5">
    <rdf:RDF>
      <cc:Work
         rdf:about="">
        <dc:format>image/svg+xml</dc:format>
        <dc:type
           rdf:resource="http://purl.org/dc/dcmitype/StillImage" />
        <dc:title />
      </cc:Work>
    </rdf:RDF>
  </metadata>
  <g
     inkscape:groupmode="layer"
     id="layer3"
     inkscape:label="Ebene 2"
     style="display:none" />
  <g
     inkscape:label="Logo"
     inkscape:groupmode="layer"
     id="layer1">
    <g
       id="g2552"
       clip-path="url(#clipPath2614)"
       transform="matrix(0.89999998,0,0,0.89999997,-89.39833,3.5872056)"
       inkscape:path-effect="#path-effect2618"
       style="fill:#000000;fill-opacity:1;stroke:#000000;stroke-opacity:0.0188172"
       inkscape:export-filename="C:\Users\Frederic\Downloads\g2552.png"
       inkscape:export-xdpi="152.39999"
       inkscape:export-ydpi="152.39999">
      <g
         inkscape:label="Clip"
         id="g2550"
         style="fill:#000000;fill-opacity:1;stroke:#000000;stroke-opacity:0.0188172">
        <path
           style="fill:#000000;fill-opacity:1;stroke:#000000;stroke-width:0.266163px;stroke-linecap:butt;stroke-linejoin:miter;stroke-opacity:0.0188172"
           d="m 180.12598,7.8515262 c 8.63328,-2.6212428 22.20205,4.4805018 30.30055,4.1094978 10.68423,-0.489466 18.08853,-5.1759608 27.68498,-4.6633538 10.53456,0.562706 16.82824,14.3748128 24.9048,21.7928298 8.10409,7.443294 20.00279,6.635183 28.50446,16.824671 4.49244,5.384316 3.84161,21.297687 5.17998,28.711672 2.15181,11.920242 13.52999,19.251757 13.60837,32.308247 0.0714,11.88146 -9.67331,19.20358 -12.78099,28.91242 -3.35354,10.4769 -0.38269,23.71695 -5.46137,31.64166 -6.349,9.9069 -18.47855,9.44433 -28.20955,17.01697 -7.95487,6.19044 -13.0455,19.39075 -24.02011,22.01409 -9.53245,2.2786 -18.73913,-4.44565 -29.9109,-4.28804 -9.60099,0.13544 -21.94379,7.74364 -31.79809,3.3237 -8.88518,-3.98526 -13.92294,-15.69326 -20.98826,-21.32952 -8.25282,-6.58356 -25.79245,-7.43465 -30.07939,-21.29238 -1.78678,-5.77582 -1.16085,-18.35325 -3.21918,-25.72738 -2.61497,-9.36837 -13.52153,-19.93381 -13.261,-29.70361 0.32626,-12.234589 9.69623,-19.388065 13.1689,-30.337918 3.6527,-11.517525 -0.65587,-22.394703 6.45846,-32.109837 5.57836,-7.617647 20.43723,-9.087329 27.94336,-16.00696 7.01161,-6.463744 14.01114,-19.4036978 21.97498,-21.1967588 z"
           id="path1265"
           sodipodi:nodetypes="csssssssssssssssssssc"
           inkscape:original-d="m 180.12598,7.8515262 c 8.63328,-2.6212428 22.20205,4.4805018 30.30055,4.1094978 10.68423,-0.489466 18.08853,-5.1759608 27.68498,-4.6633538 10.53456,0.562706 16.82824,14.3748128 24.9048,21.7928298 8.10409,7.443294 20.00279,6.635183 28.50446,16.824671 4.49244,5.384316 3.84161,21.297687 5.17998,28.711672 2.15181,11.920242 13.52999,19.251757 13.60837,32.308247 0.0714,11.88146 -9.67331,19.20358 -12.78099,28.91242 -3.35354,10.4769 -0.38269,23.71695 -5.46137,31.64166 -6.349,9.9069 -18.47855,9.44433 -28.20955,17.01697 -7.95487,6.19044 -13.0455,19.39075 -24.02011,22.01409 -9.53245,2.2786 -18.73913,-4.44565 -29.9109,-4.28804 -9.60099,0.13544 -21.94379,7.74364 -31.79809,3.3237 -8.88518,-3.98526 -13.92294,-15.69326 -20.98826,-21.32952 -8.25282,-6.58356 -25.79245,-7.43465 -30.07939,-21.29238 -1.78678,-5.77582 -1.16085,-18.35325 -3.21918,-25.72738 -2.61497,-9.36837 -13.52153,-19.93381 -13.261,-29.70361 0.32626,-12.234589 9.69623,-19.388065 13.1689,-30.337918 3.6527,-11.517525 -0.65587,-22.394703 6.45846,-32.109837 5.57836,-7.617647 20.43723,-9.087329 27.94336,-16.00696 7.01161,-6.463744 14.01114,-19.4036978 21.97498,-21.1967588 z" />
      </g>
    </g>
    <path
       style="fill:#000000;stroke:#000000;stroke-width:0.239547px;stroke-linecap:butt;stroke-linejoin:miter;stroke-opacity:0"
       d="m 85.482331,63.830533 29.035349,-0.0194 -14.37799,42.072137 z"
       id="path1281"
       sodipodi:nodetypes="cccc" />
  </g>
</svg>
